G04 ================== begin FILE IDENTIFICATION RECORD ==================*
G04 Layout Name:  C:/Users/user/Desktop/work/ex2/allegro/ex2_rlc.brd*
G04 Film Name:    drillDraw*
G04 File Format:  Gerber RS274X*
G04 File Origin:  Cadence Allegro 17.2-S038*
G04 Origin Date:  Thu Jul 11 11:35:48 2019*
G04 *
G04 Layer:  MANUFACTURING/NCLEGEND-1-2*
G04 Layer:  BOARD GEOMETRY/OUTLINE*
G04 Layer:  BOARD GEOMETRY/DESIGN_OUTLINE*
G04 *
G04 Offset:    (0.000 0.000)*
G04 Mirror:    No*
G04 Mode:      Positive*
G04 Rotation:  0*
G04 FullContactRelief:  No*
G04 UndefLineWidth:     0.100*
G04 ================== end FILE IDENTIFICATION RECORD ====================*
%FSLAX25Y25*MOMM*%
%IR0*IPPOS*OFA0.00000B0.00000*MIA0B0*SFA1.00000B1.00000*%
%AMMACRO12*
1,1,.1,-.508,.3175*
20,1,.1,-.508,.3175,-.500282,.405713,0.0*
1,1,.1,-.500282,.405713*
20,1,.1,-.500282,.405713,-.477364,.491246,0.0*
1,1,.1,-.477364,.491246*
20,1,.1,-.477364,.491246,-.439941,.5715,0.0*
1,1,.1,-.439941,.5715*
20,1,.1,-.439941,.5715,-.389151,.644036,0.0*
1,1,.1,-.389151,.644036*
20,1,.1,-.389151,.644036,-.326536,.706651,0.0*
1,1,.1,-.326536,.706651*
20,1,.1,-.326536,.706651,-.254,.757441,0.0*
1,1,.1,-.254,.757441*
20,1,.1,-.254,.757441,-.173746,.794864,0.0*
1,1,.1,-.173746,.794864*
20,1,.1,-.173746,.794864,-.088213,.817782,0.0*
1,1,.1,-.088213,.817782*
20,1,.1,-.088213,.817782,0.0,.8255,0.0*
1,1,.1,0.0,.8255*
20,1,.1,0.0,.8255,.088213,.817782,0.0*
1,1,.1,.088213,.817782*
20,1,.1,.088213,.817782,.173746,.794864,0.0*
1,1,.1,.173746,.794864*
20,1,.1,.173746,.794864,.254,.757441,0.0*
1,1,.1,.254,.757441*
20,1,.1,.254,.757441,.326536,.706651,0.0*
1,1,.1,.326536,.706651*
20,1,.1,.326536,.706651,.389151,.644036,0.0*
1,1,.1,.389151,.644036*
20,1,.1,.389151,.644036,.439941,.5715,0.0*
1,1,.1,.439941,.5715*
20,1,.1,.439941,.5715,.477364,.491246,0.0*
1,1,.1,.477364,.491246*
20,1,.1,.477364,.491246,.500282,.405713,0.0*
1,1,.1,.500282,.405713*
20,1,.1,.500282,.405713,.508,.3175,0.0*
1,1,.1,.508,.3175*
20,1,.1,.508,.3175,.508,-.3175,0.0*
1,1,.1,.508,-.3175*
20,1,.1,.508,-.3175,.500282,-.405713,0.0*
1,1,.1,.500282,-.405713*
20,1,.1,.500282,-.405713,.477364,-.491246,0.0*
1,1,.1,.477364,-.491246*
20,1,.1,.477364,-.491246,.439941,-.5715,0.0*
1,1,.1,.439941,-.5715*
20,1,.1,.439941,-.5715,.389151,-.644036,0.0*
1,1,.1,.389151,-.644036*
20,1,.1,.389151,-.644036,.326536,-.706651,0.0*
1,1,.1,.326536,-.706651*
20,1,.1,.326536,-.706651,.254,-.757441,0.0*
1,1,.1,.254,-.757441*
20,1,.1,.254,-.757441,.173746,-.794864,0.0*
1,1,.1,.173746,-.794864*
20,1,.1,.173746,-.794864,.088213,-.817782,0.0*
1,1,.1,.088213,-.817782*
20,1,.1,.088213,-.817782,0.0,-.8255,0.0*
1,1,.1,0.0,-.8255*
20,1,.1,0.0,-.8255,-.088213,-.817782,0.0*
1,1,.1,-.088213,-.817782*
20,1,.1,-.088213,-.817782,-.173746,-.794864,0.0*
1,1,.1,-.173746,-.794864*
20,1,.1,-.173746,-.794864,-.254,-.757441,0.0*
1,1,.1,-.254,-.757441*
20,1,.1,-.254,-.757441,-.326536,-.706651,0.0*
1,1,.1,-.326536,-.706651*
20,1,.1,-.326536,-.706651,-.389151,-.644036,0.0*
1,1,.1,-.389151,-.644036*
20,1,.1,-.389151,-.644036,-.439941,-.5715,0.0*
1,1,.1,-.439941,-.5715*
20,1,.1,-.439941,-.5715,-.477364,-.491246,0.0*
1,1,.1,-.477364,-.491246*
20,1,.1,-.477364,-.491246,-.500282,-.405713,0.0*
1,1,.1,-.500282,-.405713*
20,1,.1,-.500282,-.405713,-.508,-.3175,0.0*
1,1,.1,-.508,-.3175*
20,1,.1,-.508,-.3175,-.508,.3175,0.0*
1,1,.1,-.508,.3175*
%
%ADD12MACRO12*%
%AMMACRO11*
1,1,.1,.635,0.0*
20,1,.1,.635,0.0,.3175,.549926,0.0*
1,1,.1,.3175,.549926*
20,1,.1,.3175,.549926,-.3175,.549926,0.0*
1,1,.1,-.3175,.549926*
20,1,.1,-.3175,.549926,-.635,0.0,0.0*
1,1,.1,-.635,0.0*
20,1,.1,-.635,0.0,-.3175,-.549926,0.0*
1,1,.1,-.3175,-.549926*
20,1,.1,-.3175,-.549926,.3175,-.549926,0.0*
1,1,.1,.3175,-.549926*
20,1,.1,.3175,-.549926,.635,0.0,0.0*
1,1,.1,.635,0.0*
%
%ADD11MACRO11*%
%AMMACRO10*
1,1,.1,-.666,-.952*
20,1,.1,-.666,-.952,.667,.953,0.0*
1,1,.1,.667,.953*
1,1,.1,-.666,.953*
20,1,.1,-.666,.953,.667,-.952,0.0*
1,1,.1,.667,-.952*
%
%ADD10MACRO10*%
%ADD13C,.1*%
G75*
%LPD*%
G75*
G54D10*
X508000Y508000D03*
Y4445000D03*
X6477000Y508000D03*
X6540500Y4445000D03*
X8825000Y302500D03*
G54D11*
X2286000Y2730500D03*
X2032000D03*
X4889500Y3492500D03*
Y3746500D03*
X8825000Y1572500D03*
G54D12*
X2032000Y3746500D03*
X3048000D03*
X4191000Y2730500D03*
Y3746500D03*
X8825000Y937500D03*
G54D13*
G01X0Y0D02*
Y5000000D01*
X7000000D01*
Y0D01*
X0D01*
G01X7683500Y-15000D02*
Y3810000D01*
X20279400D01*
Y-15000D01*
X7683500D01*
G01Y620000D02*
X20279400D01*
G01X7683500Y1255000D02*
X20279400D01*
G01X7962900Y2048800D02*
Y2366300D01*
X8112500D01*
G01X8057400Y2212800D02*
X7962900D01*
G01X8305400Y2366300D02*
X8399800D01*
G01X8352600D02*
Y2048800D01*
G01X8305400D02*
X8399800D01*
G01X8691100Y2207500D02*
X8769900D01*
Y2112300D01*
X8746200Y2080500D01*
X8718700Y2059400D01*
X8679300Y2048800D01*
X8639900Y2059400D01*
X8612400Y2080500D01*
X8588800Y2112300D01*
X8573000Y2149300D01*
X8565100Y2191700D01*
Y2228700D01*
X8573000Y2260500D01*
X8588800Y2297500D01*
X8612400Y2329300D01*
X8636000Y2350400D01*
X8667500Y2366300D01*
X8695100D01*
X8726500Y2355700D01*
X8750200Y2334500D01*
G01X8895800Y2366300D02*
Y2138800D01*
X8911500Y2091100D01*
X8943000Y2059400D01*
X8982400Y2048800D01*
X9021800Y2059400D01*
X9053300Y2091100D01*
X9069000Y2138800D01*
Y2366300D01*
G01X9218600Y2048800D02*
Y2366300D01*
X9317000D01*
X9348500Y2350400D01*
X9368200Y2329300D01*
X9376000Y2286900D01*
X9368200Y2244600D01*
X9344500Y2218100D01*
X9317000Y2202300D01*
X9218600D01*
G01X9317000D02*
X9376000Y2048800D01*
G01X9690900D02*
X9533500D01*
Y2366300D01*
X9690900D01*
G01X9627900Y2212800D02*
X9533500D01*
G01X7683500Y2525000D02*
X20279400D01*
G01X7683500Y1890000D02*
X20279400D01*
G01X7683500Y3160000D02*
X20279400D01*
G01X9966500Y2525000D02*
Y-15000D01*
G01X9631800Y2683800D02*
X9730200Y3001300D01*
X9828600Y2683800D01*
G01X9793200Y2794900D02*
X9667200D01*
G01X9966400Y3001300D02*
Y2683800D01*
X10123800D01*
G01X10281300Y3001300D02*
Y2683800D01*
X10438700D01*
G01X10903200Y3001300D02*
Y2773800D01*
X10918900Y2726100D01*
X10950400Y2694400D01*
X10989800Y2683800D01*
X11029200Y2694400D01*
X11060700Y2726100D01*
X11076400Y2773800D01*
Y3001300D01*
G01X11214200Y2683800D02*
Y3001300D01*
X11395200Y2683800D01*
Y3001300D01*
G01X11572400D02*
X11666800D01*
G01X11619600D02*
Y2683800D01*
G01X11572400D02*
X11666800D01*
G01X11934500Y3001300D02*
Y2683800D01*
G01X11844000Y3001300D02*
X12025000D01*
G01X12166700Y2726100D02*
X12198200Y2699700D01*
X12233700Y2683800D01*
X12265100D01*
X12296600Y2699700D01*
X12320300Y2726100D01*
X12332100Y2763200D01*
X12324200Y2800200D01*
X12304500Y2832000D01*
X12269100Y2853100D01*
X12221800Y2863700D01*
X12194300Y2884900D01*
X12182500Y2921900D01*
X12190400Y2959000D01*
X12210000Y2985400D01*
X12237600Y3001300D01*
X12265100D01*
X12292700Y2990700D01*
X12316300Y2964300D01*
G01X12780800Y2683800D02*
X12879200Y3001300D01*
X12977600Y2683800D01*
G01X12942200Y2794900D02*
X12816200D01*
G01X13115400Y2683800D02*
Y3001300D01*
X13213800D01*
X13245300Y2985400D01*
X13265000Y2964300D01*
X13272800Y2921900D01*
X13265000Y2879600D01*
X13241300Y2853100D01*
X13213800Y2837300D01*
X13115400D01*
G01X13213800D02*
X13272800Y2683800D01*
G01X13587700D02*
X13430300D01*
Y3001300D01*
X13587700D01*
G01X13524700Y2847800D02*
X13430300D01*
G01X14091600Y3001300D02*
X14186000D01*
G01X14138800D02*
Y2683800D01*
G01X14091600D02*
X14186000D01*
G01X14363200D02*
Y3001300D01*
X14544200Y2683800D01*
Y3001300D01*
G01X14981100Y2683800D02*
Y3001300D01*
X15083500Y2736700D01*
X15185900Y3001300D01*
Y2683800D01*
G01X15351200Y3001300D02*
X15445600D01*
G01X15398400D02*
Y2683800D01*
G01X15351200D02*
X15445600D01*
G01X15634600Y3001300D02*
Y2683800D01*
X15792000D01*
G01X15949500Y3001300D02*
Y2683800D01*
X16106900D01*
G01X16295900Y3001300D02*
X16390300D01*
G01X16343100D02*
Y2683800D01*
G01X16295900D02*
X16390300D01*
G01X16555600D02*
Y3001300D01*
X16658000Y2736700D01*
X16760400Y3001300D01*
Y2683800D01*
G01X17051600D02*
X16894200D01*
Y3001300D01*
X17051600D01*
G01X16988600Y2847800D02*
X16894200D01*
G01X17287800Y3001300D02*
Y2683800D01*
G01X17197300Y3001300D02*
X17378300D01*
G01X17681400Y2683800D02*
X17524000D01*
Y3001300D01*
X17681400D01*
G01X17618400Y2847800D02*
X17524000D01*
G01X17838900Y2683800D02*
Y3001300D01*
X17937300D01*
X17968800Y2985400D01*
X17988500Y2964300D01*
X17996300Y2921900D01*
X17988500Y2879600D01*
X17964800Y2853100D01*
X17937300Y2837300D01*
X17838900D01*
G01X17937300D02*
X17996300Y2683800D01*
G01X18149800Y2726100D02*
X18181300Y2699700D01*
X18216800Y2683800D01*
X18248200D01*
X18279700Y2699700D01*
X18303400Y2726100D01*
X18315200Y2763200D01*
X18307300Y2800200D01*
X18287600Y2832000D01*
X18252200Y2853100D01*
X18204900Y2863700D01*
X18177400Y2884900D01*
X18165600Y2921900D01*
X18173500Y2959000D01*
X18193100Y2985400D01*
X18220700Y3001300D01*
X18248200D01*
X18275800Y2990700D01*
X18299400Y2964300D01*
G01X9958500Y3333800D02*
Y3651300D01*
X10037200D01*
X10068700Y3635400D01*
X10092300Y3614300D01*
X10112000Y3582500D01*
X10127800Y3545500D01*
X10131700Y3492500D01*
X10127800Y3439600D01*
X10112000Y3402600D01*
X10092300Y3370800D01*
X10068700Y3349700D01*
X10037200Y3333800D01*
X9958500D01*
G01X10281300D02*
Y3651300D01*
X10379700D01*
X10411200Y3635400D01*
X10430900Y3614300D01*
X10438700Y3571900D01*
X10430900Y3529600D01*
X10407200Y3503100D01*
X10379700Y3487300D01*
X10281300D01*
G01X10379700D02*
X10438700Y3333800D01*
G01X10627700Y3651300D02*
X10722100D01*
G01X10674900D02*
Y3333800D01*
G01X10627700D02*
X10722100D01*
G01X10911100Y3651300D02*
Y3333800D01*
X11068500D01*
G01X11226000Y3651300D02*
Y3333800D01*
X11383400D01*
G01X12021100Y3624800D02*
X11997500Y3640700D01*
X11969900Y3651300D01*
X11938400D01*
X11903000Y3635400D01*
X11875500Y3609000D01*
X11855800Y3577200D01*
X11840000Y3524300D01*
X11836100Y3476700D01*
X11844000Y3429000D01*
X11855800Y3397300D01*
X11879400Y3365500D01*
X11906900Y3344400D01*
X11934500Y3333800D01*
X11962100D01*
X11989600Y3344400D01*
X12013200Y3360300D01*
X12032900Y3381400D01*
G01X12166700Y3333800D02*
Y3651300D01*
G01X12332100D02*
Y3333800D01*
G01Y3492500D02*
X12166700D01*
G01X12465900Y3333800D02*
X12564300Y3651300D01*
X12662700Y3333800D01*
G01X12627300Y3444900D02*
X12501300D01*
G01X12800500Y3333800D02*
Y3651300D01*
X12898900D01*
X12930400Y3635400D01*
X12950100Y3614300D01*
X12957900Y3571900D01*
X12950100Y3529600D01*
X12926400Y3503100D01*
X12898900Y3487300D01*
X12800500D01*
G01X12898900D02*
X12957900Y3333800D01*
G01X13194100Y3651300D02*
Y3333800D01*
G01X13103600Y3651300D02*
X13284600D01*
G01X13509000Y3323200D02*
X13501100Y3328500D01*
Y3339100D01*
X13509000Y3344400D01*
X13516900Y3339100D01*
Y3328500D01*
X13509000Y3323200D01*
G01Y3466100D02*
X13501100Y3471400D01*
Y3482000D01*
X13509000Y3487300D01*
X13516900Y3482000D01*
Y3471400D01*
X13509000Y3466100D01*
G01X14138800Y3651300D02*
Y3333800D01*
G01X14048300Y3651300D02*
X14229300D01*
G01X14453700Y3333800D02*
X14422200Y3339100D01*
X14394700Y3360300D01*
X14371000Y3392000D01*
X14355300Y3429000D01*
X14347400Y3471400D01*
Y3513700D01*
X14355300Y3556100D01*
X14371000Y3593100D01*
X14394700Y3624800D01*
X14422200Y3646000D01*
X14453700Y3651300D01*
X14485200Y3646000D01*
X14512700Y3624800D01*
X14536400Y3593100D01*
X14552100Y3556100D01*
X14560000Y3513700D01*
Y3471400D01*
X14552100Y3429000D01*
X14536400Y3392000D01*
X14512700Y3360300D01*
X14485200Y3339100D01*
X14453700Y3333800D01*
G01X14689900D02*
Y3651300D01*
X14784300D01*
X14815800Y3635400D01*
X14839500Y3598400D01*
X14847300Y3556100D01*
X14839500Y3513700D01*
X14819800Y3482000D01*
X14784300Y3466100D01*
X14689900D01*
G01X15398400Y3651300D02*
Y3333800D01*
G01X15343300Y3545500D02*
X15453500D01*
G01X15713300Y3333800D02*
X15689700Y3339100D01*
X15666100Y3360300D01*
X15650300Y3397300D01*
X15642400Y3439600D01*
X15650300Y3482000D01*
X15666100Y3519000D01*
X15689700Y3540200D01*
X15713300Y3545500D01*
X15736900Y3540200D01*
X15760500Y3519000D01*
X15776300Y3482000D01*
X15780200Y3439600D01*
X15776300Y3397300D01*
X15760500Y3360300D01*
X15736900Y3339100D01*
X15713300Y3333800D01*
G01X16374600Y3503100D02*
X16390300Y3519000D01*
X16402100Y3545500D01*
X16410000Y3582500D01*
X16402100Y3614300D01*
X16386400Y3635400D01*
X16358800Y3651300D01*
X16252600D01*
Y3333800D01*
X16382500D01*
X16410000Y3355000D01*
X16425800Y3386700D01*
X16433600Y3423800D01*
X16425800Y3460800D01*
X16402100Y3492500D01*
X16374600Y3503100D01*
X16252600D01*
G01X16658000Y3333800D02*
X16626500Y3339100D01*
X16599000Y3360300D01*
X16575300Y3392000D01*
X16559600Y3429000D01*
X16551700Y3471400D01*
Y3513700D01*
X16559600Y3556100D01*
X16575300Y3593100D01*
X16599000Y3624800D01*
X16626500Y3646000D01*
X16658000Y3651300D01*
X16689500Y3646000D01*
X16717000Y3624800D01*
X16740700Y3593100D01*
X16756400Y3556100D01*
X16764300Y3513700D01*
Y3471400D01*
X16756400Y3429000D01*
X16740700Y3392000D01*
X16717000Y3360300D01*
X16689500Y3339100D01*
X16658000Y3333800D01*
G01X16972900Y3651300D02*
Y3333800D01*
G01X16882400Y3651300D02*
X17063400D01*
G01X17287800D02*
Y3333800D01*
G01X17197300Y3651300D02*
X17378300D01*
G01X17602700Y3333800D02*
X17571200Y3339100D01*
X17543700Y3360300D01*
X17520000Y3392000D01*
X17504300Y3429000D01*
X17496400Y3471400D01*
Y3513700D01*
X17504300Y3556100D01*
X17520000Y3593100D01*
X17543700Y3624800D01*
X17571200Y3646000D01*
X17602700Y3651300D01*
X17634200Y3646000D01*
X17661700Y3624800D01*
X17685400Y3593100D01*
X17701100Y3556100D01*
X17709000Y3513700D01*
Y3471400D01*
X17701100Y3429000D01*
X17685400Y3392000D01*
X17661700Y3360300D01*
X17634200Y3339100D01*
X17602700Y3333800D01*
G01X17815200D02*
Y3651300D01*
X17917600Y3386700D01*
X18020000Y3651300D01*
Y3333800D01*
G01X10560800Y2048800D02*
Y2366300D01*
X10710400D01*
G01X10655300Y2212800D02*
X10560800D01*
G01X10903300Y2366300D02*
X10997700D01*
G01X10950500D02*
Y2048800D01*
G01X10903300D02*
X10997700D01*
G01X11174900D02*
Y2366300D01*
X11355900Y2048800D01*
Y2366300D01*
G01X11533100D02*
X11627500D01*
G01X11580300D02*
Y2048800D01*
G01X11533100D02*
X11627500D01*
G01X11812500Y2091100D02*
X11844000Y2064700D01*
X11879500Y2048800D01*
X11910900D01*
X11942400Y2064700D01*
X11966100Y2091100D01*
X11977900Y2128200D01*
X11970000Y2165200D01*
X11950300Y2197000D01*
X11914900Y2218100D01*
X11867600Y2228700D01*
X11840100Y2249900D01*
X11828300Y2286900D01*
X11836200Y2324000D01*
X11855800Y2350400D01*
X11883400Y2366300D01*
X11910900D01*
X11938500Y2355700D01*
X11962100Y2329300D01*
G01X12127400Y2048800D02*
Y2366300D01*
G01X12292800D02*
Y2048800D01*
G01Y2207500D02*
X12127400D01*
G01X12603700Y2048800D02*
X12446300D01*
Y2366300D01*
X12603700D01*
G01X12540700Y2212800D02*
X12446300D01*
G01X12753300Y2048800D02*
Y2366300D01*
X12832000D01*
X12863500Y2350400D01*
X12887100Y2329300D01*
X12906800Y2297500D01*
X12922600Y2260500D01*
X12926500Y2207500D01*
X12922600Y2154600D01*
X12906800Y2117600D01*
X12887100Y2085800D01*
X12863500Y2064700D01*
X12832000Y2048800D01*
X12753300D01*
G01X13036700Y1943000D02*
X13272900D01*
G01X13387000Y2091100D02*
X13418500Y2064700D01*
X13454000Y2048800D01*
X13485400D01*
X13516900Y2064700D01*
X13540600Y2091100D01*
X13552400Y2128200D01*
X13544500Y2165200D01*
X13524800Y2197000D01*
X13489400Y2218100D01*
X13442100Y2228700D01*
X13414600Y2249900D01*
X13402800Y2286900D01*
X13410700Y2324000D01*
X13430300Y2350400D01*
X13457900Y2366300D01*
X13485400D01*
X13513000Y2355700D01*
X13536600Y2329300D01*
G01X13737400Y2366300D02*
X13831800D01*
G01X13784600D02*
Y2048800D01*
G01X13737400D02*
X13831800D01*
G01X14024700Y2366300D02*
X14174300D01*
X14024700Y2048800D01*
X14174300D01*
G01X14493100D02*
X14335700D01*
Y2366300D01*
X14493100D01*
G01X14430100Y2212800D02*
X14335700D01*
G01X11808600Y207200D02*
X11832200Y170200D01*
X11863700Y149000D01*
X11899100Y143700D01*
X11930600Y149000D01*
X11962100Y175400D01*
X11981800Y207200D01*
X11985700Y238900D01*
X11977900Y276000D01*
X11950300Y302400D01*
X11922800Y313000D01*
X11887300D01*
G01X11922800D02*
X11946400Y328900D01*
X11966100Y355400D01*
X11973900Y387100D01*
X11966100Y418900D01*
X11946400Y445300D01*
X11910900Y461200D01*
X11875500Y455900D01*
X11840100Y434700D01*
G01X12210100Y133100D02*
X12202200Y138400D01*
Y149000D01*
X12210100Y154300D01*
X12218000Y149000D01*
Y138400D01*
X12210100Y133100D01*
G01X12525000Y143700D02*
Y461200D01*
X12477800Y397700D01*
G01Y143700D02*
X12572200D01*
G01X12832000D02*
X12839900Y212500D01*
X12851700Y270700D01*
X12867500Y323600D01*
X12887100Y381800D01*
X12918600Y461200D01*
X12761200D01*
G01X13068200Y191300D02*
X13091800Y164900D01*
X13119400Y149000D01*
X13154800Y143700D01*
X13190200Y154300D01*
X13217800Y175400D01*
X13237500Y212500D01*
X13241400Y254800D01*
X13233500Y297200D01*
X13213800Y323600D01*
X13186300Y344800D01*
X13158700Y350100D01*
X13131200Y344800D01*
X13095800Y323600D01*
X13107600Y461200D01*
X13213800D01*
G01X11895200Y778800D02*
Y1096300D01*
X11848000Y1032800D01*
G01Y778800D02*
X11942400D01*
G01X12210100Y768200D02*
X12202200Y773500D01*
Y784100D01*
X12210100Y789400D01*
X12218000Y784100D01*
Y773500D01*
X12210100Y768200D01*
G01X12525000Y1096300D02*
X12493500Y1085700D01*
X12469900Y1059300D01*
X12454100Y1027500D01*
X12442300Y985200D01*
X12438400Y937500D01*
X12442300Y889900D01*
X12454100Y847600D01*
X12469900Y815800D01*
X12493500Y789400D01*
X12525000Y778800D01*
X12556500Y789400D01*
X12580100Y815800D01*
X12595900Y847600D01*
X12607700Y889900D01*
X12611600Y937500D01*
X12607700Y985200D01*
X12595900Y1027500D01*
X12580100Y1059300D01*
X12556500Y1085700D01*
X12525000Y1096300D01*
G01X12765100Y911100D02*
X12792700Y948100D01*
X12816300Y969300D01*
X12847800Y979900D01*
X12875300Y969300D01*
X12895000Y948100D01*
X12910800Y916400D01*
X12914700Y879300D01*
X12910800Y847600D01*
X12895000Y815800D01*
X12871400Y789400D01*
X12843800Y778800D01*
X12812300Y789400D01*
X12784800Y821100D01*
X12769000Y868800D01*
X12765100Y921700D01*
X12773000Y990500D01*
X12784800Y1027500D01*
X12804500Y1064500D01*
X12832000Y1091000D01*
X12859600Y1096300D01*
X12887100Y1085700D01*
X12906800Y1059300D01*
G01X13146900Y778800D02*
X13154800Y847600D01*
X13166600Y905800D01*
X13182400Y958700D01*
X13202000Y1016900D01*
X13233500Y1096300D01*
X13076100D01*
G01X11895200Y1731200D02*
X11863700Y1720600D01*
X11840100Y1694200D01*
X11824300Y1662400D01*
X11812500Y1620100D01*
X11808600Y1572400D01*
X11812500Y1524800D01*
X11824300Y1482500D01*
X11840100Y1450700D01*
X11863700Y1424300D01*
X11895200Y1413700D01*
X11926700Y1424300D01*
X11950300Y1450700D01*
X11966100Y1482500D01*
X11977900Y1524800D01*
X11981800Y1572400D01*
X11977900Y1620100D01*
X11966100Y1662400D01*
X11950300Y1694200D01*
X11926700Y1720600D01*
X11895200Y1731200D01*
G01X12210100Y1403100D02*
X12202200Y1408400D01*
Y1419000D01*
X12210100Y1424300D01*
X12218000Y1419000D01*
Y1408400D01*
X12210100Y1403100D01*
G01X12458100Y1450700D02*
X12485600Y1424300D01*
X12517100Y1413700D01*
X12548600Y1424300D01*
X12576200Y1456000D01*
X12595900Y1503700D01*
X12603700Y1551300D01*
Y1609500D01*
X12595900Y1657100D01*
X12576200Y1699400D01*
X12552600Y1720600D01*
X12525000Y1731200D01*
X12493500Y1720600D01*
X12469900Y1699400D01*
X12454100Y1667700D01*
X12446300Y1625400D01*
X12454100Y1588300D01*
X12473800Y1551300D01*
X12497400Y1530100D01*
X12525000Y1524800D01*
X12556500Y1535400D01*
X12580100Y1561900D01*
X12603700Y1609500D01*
G01X12839900Y1413700D02*
Y1731200D01*
X12792700Y1667700D01*
G01Y1413700D02*
X12887100D01*
G01X13202000D02*
Y1731200D01*
X13056400Y1503700D01*
X13253200D01*
G01X15189800Y143700D02*
Y461200D01*
X15370800Y143700D01*
Y461200D01*
G01X15595200Y143700D02*
X15563700Y149000D01*
X15536200Y170200D01*
X15512500Y201900D01*
X15496800Y238900D01*
X15488900Y281300D01*
Y323600D01*
X15496800Y366000D01*
X15512500Y403000D01*
X15536200Y434700D01*
X15563700Y455900D01*
X15595200Y461200D01*
X15626700Y455900D01*
X15654200Y434700D01*
X15677900Y403000D01*
X15693600Y366000D01*
X15701500Y323600D01*
Y281300D01*
X15693600Y238900D01*
X15677900Y201900D01*
X15654200Y170200D01*
X15626700Y149000D01*
X15595200Y143700D01*
G01X15819600D02*
Y461200D01*
X16000600Y143700D01*
Y461200D01*
G01X16173800Y249500D02*
X16276200D01*
G01X16461200Y143700D02*
Y461200D01*
X16555600D01*
X16587100Y445300D01*
X16610800Y408300D01*
X16618600Y366000D01*
X16610800Y323600D01*
X16591100Y291900D01*
X16555600Y276000D01*
X16461200D01*
G01X16776100Y461200D02*
Y143700D01*
X16933500D01*
G01X17071300D02*
X17169700Y461200D01*
X17268100Y143700D01*
G01X17232700Y254800D02*
X17106700D01*
G01X17484600Y461200D02*
Y143700D01*
G01X17394100Y461200D02*
X17575100D01*
G01X17878200Y143700D02*
X17720800D01*
Y461200D01*
X17878200D01*
G01X17815200Y307700D02*
X17720800D01*
G01X18027800Y143700D02*
Y461200D01*
X18106500D01*
X18138000Y445300D01*
X18161600Y424200D01*
X18181300Y392400D01*
X18197100Y355400D01*
X18201000Y302400D01*
X18197100Y249500D01*
X18181300Y212500D01*
X18161600Y180700D01*
X18138000Y159600D01*
X18106500Y143700D01*
X18027800D01*
G01X15083600Y2525000D02*
Y-15000D01*
G01X15831400Y778800D02*
Y1096300D01*
X15925800D01*
X15957300Y1080400D01*
X15981000Y1043400D01*
X15988800Y1001100D01*
X15981000Y958700D01*
X15961300Y927000D01*
X15925800Y911100D01*
X15831400D01*
G01X16146300Y1096300D02*
Y778800D01*
X16303700D01*
G01X16441500D02*
X16539900Y1096300D01*
X16638300Y778800D01*
G01X16602900Y889900D02*
X16476900D01*
G01X16854800Y1096300D02*
Y778800D01*
G01X16764300Y1096300D02*
X16945300D01*
G01X17248400Y778800D02*
X17091000D01*
Y1096300D01*
X17248400D01*
G01X17185400Y942800D02*
X17091000D01*
G01X17398000Y778800D02*
Y1096300D01*
X17476700D01*
X17508200Y1080400D01*
X17531800Y1059300D01*
X17551500Y1027500D01*
X17567300Y990500D01*
X17571200Y937500D01*
X17567300Y884600D01*
X17551500Y847600D01*
X17531800Y815800D01*
X17508200Y794700D01*
X17476700Y778800D01*
X17398000D01*
G01X15831400Y1413700D02*
Y1731200D01*
X15925800D01*
X15957300Y1715300D01*
X15981000Y1678300D01*
X15988800Y1636000D01*
X15981000Y1593600D01*
X15961300Y1561900D01*
X15925800Y1546000D01*
X15831400D01*
G01X16146300Y1731200D02*
Y1413700D01*
X16303700D01*
G01X16441500D02*
X16539900Y1731200D01*
X16638300Y1413700D01*
G01X16602900Y1524800D02*
X16476900D01*
G01X16854800Y1731200D02*
Y1413700D01*
G01X16764300Y1731200D02*
X16945300D01*
G01X17248400Y1413700D02*
X17091000D01*
Y1731200D01*
X17248400D01*
G01X17185400Y1577700D02*
X17091000D01*
G01X17398000Y1413700D02*
Y1731200D01*
X17476700D01*
X17508200Y1715300D01*
X17531800Y1694200D01*
X17551500Y1662400D01*
X17567300Y1625400D01*
X17571200Y1572400D01*
X17567300Y1519500D01*
X17551500Y1482500D01*
X17531800Y1450700D01*
X17508200Y1429600D01*
X17476700Y1413700D01*
X17398000D01*
G01X15831400Y2048800D02*
Y2366300D01*
X15925800D01*
X15957300Y2350400D01*
X15981000Y2313400D01*
X15988800Y2271100D01*
X15981000Y2228700D01*
X15961300Y2197000D01*
X15925800Y2181100D01*
X15831400D01*
G01X16146300Y2366300D02*
Y2048800D01*
X16303700D01*
G01X16441500D02*
X16539900Y2366300D01*
X16638300Y2048800D01*
G01X16602900Y2159900D02*
X16476900D01*
G01X16854800Y2366300D02*
Y2048800D01*
G01X16764300Y2366300D02*
X16945300D01*
G01X17248400Y2048800D02*
X17091000D01*
Y2366300D01*
X17248400D01*
G01X17185400Y2212800D02*
X17091000D01*
G01X17398000Y2048800D02*
Y2366300D01*
X17476700D01*
X17508200Y2350400D01*
X17531800Y2329300D01*
X17551500Y2297500D01*
X17567300Y2260500D01*
X17571200Y2207500D01*
X17567300Y2154600D01*
X17551500Y2117600D01*
X17531800Y2085800D01*
X17508200Y2064700D01*
X17476700Y2048800D01*
X17398000D01*
G01X18311300Y2525000D02*
Y-15000D01*
G01X19342600Y143700D02*
Y461200D01*
X19197000Y233700D01*
X19393800D01*
G01X19342600Y778800D02*
Y1096300D01*
X19197000Y868800D01*
X19393800D01*
G01X19342600Y1413700D02*
Y1731200D01*
X19197000Y1503700D01*
X19393800D01*
G01X18980500Y2048800D02*
X18949000Y2054100D01*
X18921500Y2075300D01*
X18897800Y2107000D01*
X18882100Y2144000D01*
X18874200Y2186400D01*
Y2228700D01*
X18882100Y2271100D01*
X18897800Y2308100D01*
X18921500Y2339800D01*
X18949000Y2361000D01*
X18980500Y2366300D01*
X19012000Y2361000D01*
X19039500Y2339800D01*
X19063200Y2308100D01*
X19078900Y2271100D01*
X19086800Y2228700D01*
Y2186400D01*
X19078900Y2144000D01*
X19063200Y2107000D01*
X19039500Y2075300D01*
X19012000Y2054100D01*
X18980500Y2048800D01*
G01X19012000Y2133500D02*
X19059200Y2048800D01*
G01X19295400Y2366300D02*
Y2048800D01*
G01X19204900Y2366300D02*
X19385900D01*
G01X19610300Y2048800D02*
Y2191700D01*
X19531600Y2366300D01*
G01X19689000D02*
X19610300Y2191700D01*
M02*
