G04 ================== begin FILE IDENTIFICATION RECORD ==================*
G04 Layout Name:  C:/Users/user/Desktop/work/ex2/allegro/ex2_rlc.brd*
G04 Film Name:    SilkB*
G04 File Format:  Gerber RS274X*
G04 File Origin:  Cadence Allegro 17.2-S038*
G04 Origin Date:  Thu Jul 11 11:35:48 2019*
G04 *
G04 Layer:  REF DES/SILKSCREEN_BOTTOM*
G04 Layer:  PACKAGE GEOMETRY/SILKSCREEN_BOTTOM*
G04 Layer:  BOARD GEOMETRY/SILKSCREEN_BOTTOM*
G04 *
G04 Offset:    (0.000 0.000)*
G04 Mirror:    No*
G04 Mode:      Positive*
G04 Rotation:  0*
G04 FullContactRelief:  No*
G04 UndefLineWidth:     0.200*
G04 ================== end FILE IDENTIFICATION RECORD ====================*
%FSLAX25Y25*MOMM*%
%IR0*IPPOS*OFA0.00000B0.00000*MIA0B0*SFA1.00000B1.00000*%
%ADD10C,.2*%
G75*
%LPD*%
G75*
G54D10*
G01X4882100Y1513400D02*
X4878000Y1519800D01*
X4873300Y1522900D01*
X4867800Y1524000D01*
X4861100Y1521900D01*
X4856300Y1516600D01*
X4855000Y1510200D01*
X4855700Y1503900D01*
X4858400Y1498600D01*
X4871900Y1488000D01*
X4878000Y1480600D01*
X4882100Y1470000D01*
X4883400Y1460500D01*
X4855000D01*
G01X4813400Y1524000D02*
X4818800Y1521900D01*
X4822900Y1516600D01*
X4825600Y1510200D01*
X4827600Y1501800D01*
X4828300Y1492200D01*
X4827600Y1482700D01*
X4825600Y1474300D01*
X4822900Y1467900D01*
X4818800Y1462600D01*
X4813400Y1460500D01*
X4808000Y1462600D01*
X4803900Y1467900D01*
X4801200Y1474300D01*
X4799200Y1482700D01*
X4798500Y1492200D01*
X4799200Y1501800D01*
X4801200Y1510200D01*
X4803900Y1516600D01*
X4808000Y1521900D01*
X4813400Y1524000D01*
G01X4757600Y1460500D02*
Y1524000D01*
X4765700Y1511300D01*
G01Y1460500D02*
X4749500D01*
G01X4713300Y1467900D02*
X4708600Y1462600D01*
X4703200Y1460500D01*
X4697700Y1462600D01*
X4693000Y1469000D01*
X4689600Y1478500D01*
X4688300Y1488000D01*
Y1499700D01*
X4689600Y1509200D01*
X4693000Y1517600D01*
X4697100Y1521900D01*
X4701800Y1524000D01*
X4707200Y1521900D01*
X4711300Y1517600D01*
X4714000Y1511300D01*
X4715300Y1502800D01*
X4714000Y1495400D01*
X4710600Y1488000D01*
X4706500Y1483800D01*
X4701800Y1482700D01*
X4696400Y1484800D01*
X4692300Y1490100D01*
X4688300Y1499700D01*
G01X4646000Y1458400D02*
X4647400Y1459400D01*
Y1461600D01*
X4646000Y1462600D01*
X4644600Y1461600D01*
Y1459400D01*
X4646000Y1458400D01*
G01X4590200Y1524000D02*
X4595600Y1521900D01*
X4599700Y1516600D01*
X4602400Y1510200D01*
X4604400Y1501800D01*
X4605100Y1492200D01*
X4604400Y1482700D01*
X4602400Y1474300D01*
X4599700Y1467900D01*
X4595600Y1462600D01*
X4590200Y1460500D01*
X4584800Y1462600D01*
X4580700Y1467900D01*
X4578000Y1474300D01*
X4576000Y1482700D01*
X4575300Y1492200D01*
X4576000Y1501800D01*
X4578000Y1510200D01*
X4580700Y1516600D01*
X4584800Y1521900D01*
X4590200Y1524000D01*
G01X4535800Y1460500D02*
X4534400Y1474300D01*
X4532400Y1485900D01*
X4529700Y1496500D01*
X4526300Y1508100D01*
X4520900Y1524000D01*
X4547900D01*
G01X4422800Y1460500D02*
Y1524000D01*
X4430900Y1511300D01*
G01Y1460500D02*
X4414700D01*
G01X4367000D02*
Y1524000D01*
X4375100Y1511300D01*
G01Y1460500D02*
X4358900D01*
M02*
