G04 ================== begin FILE IDENTIFICATION RECORD ==================*
G04 Layout Name:  C:/Users/user/Desktop/work/ex2/allegro/ex2_rlc.brd*
G04 Film Name:    SilkT*
G04 File Format:  Gerber RS274X*
G04 File Origin:  Cadence Allegro 17.2-S038*
G04 Origin Date:  Thu Jul 11 11:35:48 2019*
G04 *
G04 Layer:  REF DES/SILKSCREEN_TOP*
G04 Layer:  PACKAGE GEOMETRY/SILKSCREEN_TOP*
G04 Layer:  BOARD GEOMETRY/SILKSCREEN_TOP*
G04 *
G04 Offset:    (0.000 0.000)*
G04 Mirror:    No*
G04 Mode:      Positive*
G04 Rotation:  0*
G04 FullContactRelief:  No*
G04 UndefLineWidth:     0.200*
G04 ================== end FILE IDENTIFICATION RECORD ====================*
%FSLAX25Y25*MOMM*%
%IR0*IPPOS*OFA0.00000B0.00000*MIA0B0*SFA1.00000B1.00000*%
%ADD10C,.2*%
G75*
%LPD*%
G75*
G54D10*
G01X1905000Y2603500D02*
Y2857500D01*
X2413000D01*
Y2603500D01*
X1905000D01*
G01X1902000Y2885900D02*
X1906900Y2878100D01*
X1912700Y2872800D01*
X1919600Y2870200D01*
X1927300Y2872800D01*
X1933200Y2878100D01*
X1939000Y2885900D01*
X1941000Y2896400D01*
Y2948900D01*
G01X2000200Y2870200D02*
Y2948900D01*
X1988500Y2933200D01*
G01Y2870200D02*
X2011900D01*
G01X2425700Y3895900D02*
X2347000D01*
Y3920300D01*
X2350900Y3928100D01*
X2356200Y3932900D01*
X2366700Y3934900D01*
X2377200Y3932900D01*
X2383700Y3927100D01*
X2387700Y3920300D01*
Y3895900D01*
G01Y3920300D02*
X2425700Y3934900D01*
G01Y3994100D02*
X2347000D01*
X2362700Y3982400D01*
G01X2425700D02*
Y4005800D01*
G01X2895600Y3619500D02*
X2184400D01*
Y3873500D01*
X2895600D01*
Y3619500D01*
G01X3344700Y3926800D02*
Y3848100D01*
X3383700D01*
G01X3442900D02*
Y3926800D01*
X3431200Y3911100D01*
G01Y3848100D02*
X3454600D01*
G01X4041600Y3124200D02*
Y3045500D01*
X4017200D01*
X4009400Y3049400D01*
X4004600Y3054700D01*
X4002600Y3065200D01*
X4004600Y3075700D01*
X4010400Y3082200D01*
X4017200Y3086200D01*
X4041600D01*
G01X4017200D02*
X4002600Y3124200D01*
G01X3961900Y3058600D02*
X3956100Y3050700D01*
X3949200Y3046800D01*
X3941500Y3045500D01*
X3931700Y3048100D01*
X3924900Y3054700D01*
X3923000Y3062600D01*
X3923900Y3070400D01*
X3927800Y3077000D01*
X3947300Y3090100D01*
X3956100Y3099300D01*
X3961900Y3112400D01*
X3963800Y3124200D01*
X3923000D01*
G01X4318000Y3594100D02*
Y2882900D01*
X4064000D01*
Y3594100D01*
X4318000D01*
G01X3454400Y3657600D02*
Y3835400D01*
X3657600D01*
Y3657600D01*
X3454400D01*
G01X5143500Y3619500D02*
G03I-254000J0D01*
G01X4352100Y3964500D02*
X4342500Y3970900D01*
X4331200Y3975100D01*
X4318400D01*
X4303900Y3968700D01*
X4292600Y3958200D01*
X4284600Y3945500D01*
X4278100Y3924300D01*
X4276500Y3905200D01*
X4279800Y3886200D01*
X4284600Y3873500D01*
X4294200Y3860800D01*
X4305500Y3852300D01*
X4316700Y3848100D01*
X4328000D01*
X4339300Y3852300D01*
X4348900Y3858700D01*
X4357000Y3867100D01*
G01X4446200Y3848100D02*
Y3975100D01*
X4426900Y3949700D01*
G01Y3848100D02*
X4465500D01*
M02*
